<svg version="1.1" viewBox="0.0 0.0 100.0 100.0" fill="none" stroke="none" stroke-linecap="square" stroke-miterlimit="10" xmlns:xlink="http://www.w3.org/1999/xlink" xmlns="http://www.w3.org/2000/svg"><clipPath id="p.0"><path d="m0 0l100.0 0l0 100.0l-100.0 0l0 -100.0z" clip-rule="nonzero"/></clipPath><g clip-path="url(#p.0)"><path fill="#000000" fill-opacity="0.0" d="m0 0l100.0 0l0 100.0l-100.0 0z" fill-rule="evenodd"/><path fill="#d9d9d9" d="m11.119738 27.460688l77.76 0l-15.552002 65.74176l-46.656 0z" fill-rule="evenodd"/><path stroke="#000000" stroke-width="1.0" stroke-linejoin="round" stroke-linecap="butt" d="m11.119738 27.460688l77.76 0l-15.552002 65.74176l-46.656 0z" fill-rule="evenodd"/><path fill="#d9d9d9" d="m26.67316 27.460688l46.656002 0l-9.331203 65.74176l-27.993599 0z" fill-rule="evenodd"/><path stroke="#000000" stroke-width="1.0" stroke-linejoin="round" stroke-linecap="butt" d="m26.67316 27.460688l46.656002 0l-9.331203 65.74176l-27.993599 0z" fill-rule="evenodd"/><path fill="#d9d9d9" d="m42.224735 27.460688l15.551998 0l-3.1103973 65.74176l-9.331203 0z" fill-rule="evenodd"/><path stroke="#000000" stroke-width="1.0" stroke-linejoin="round" stroke-linecap="butt" d="m42.224735 27.460688l15.551998 0l-3.1103973 65.74176l-9.331203 0z" fill-rule="evenodd"/><path fill="#d9d9d9" d="m93.19974 27.459862l0 -4.6981297l0 0c0 -2.5947056 -19.341301 -4.6981297 -43.2 -4.6981297c-23.8587 0 -43.2 2.103424 -43.2 4.6981297l0 4.6981297z" fill-rule="evenodd"/><path stroke="#000000" stroke-width="1.0" stroke-linejoin="round" stroke-linecap="butt" d="m93.19974 27.459862l0 -4.6981297l0 0c0 -2.5947056 -19.341301 -4.6981297 -43.2 -4.6981297c-23.8587 0 -43.2 2.103424 -43.2 4.6981297l0 4.6981297z" fill-rule="evenodd"/><path fill="#d9d9d9" d="m75.924286 27.459496l0 -4.6981297l0 0c0 -2.5947056 -11.606049 -4.6981297 -25.922832 -4.6981297c-14.316788 0 -25.922834 2.103424 -25.922834 4.6981297l0 4.6981297z" fill-rule="evenodd"/><path stroke="#000000" stroke-width="1.0" stroke-linejoin="round" stroke-linecap="butt" d="m75.924286 27.459496l0 -4.6981297l0 0c0 -2.5947056 -11.606049 -4.6981297 -25.922832 -4.6981297c-14.316788 0 -25.922834 2.103424 -25.922834 4.6981297l0 4.6981297z" fill-rule="evenodd"/><path fill="#d9d9d9" d="m58.64645 27.460047l0 -4.6981297l0 0c0 -2.5947037 -3.8708 -4.6981277 -8.645672 -4.6981277c-4.774872 0 -8.645668 2.103424 -8.645668 4.6981277l0 4.6981297z" fill-rule="evenodd"/><path stroke="#000000" stroke-width="1.0" stroke-linejoin="round" stroke-linecap="butt" d="m58.64645 27.460047l0 -4.6981297l0 0c0 -2.5947037 -3.8708 -4.6981277 -8.645672 -4.6981277c-4.774872 0 -8.645668 2.103424 -8.645668 4.6981277l0 4.6981297z" fill-rule="evenodd"/><path fill="#cccccc" d="m39.00202 18.753561l0 0c0 -6.602723 4.92416 -11.955288 10.998425 -11.955288c6.0742607 0 10.998425 5.352565 10.998425 11.955288l-5.4992104 0c0 -3.5655918 -2.462082 -6.4560757 -5.499214 -6.4560757c-3.0371323 0 -5.499214 2.8904839 -5.499214 6.4560757z" fill-rule="evenodd"/><path stroke="#000000" stroke-width="1.0" stroke-linejoin="round" stroke-linecap="butt" d="m39.00202 18.753561l0 0c0 -6.602723 4.92416 -11.955288 10.998425 -11.955288c6.0742607 0 10.998425 5.352565 10.998425 11.955288l-5.4992104 0c0 -3.5655918 -2.462082 -6.4560757 -5.499214 -6.4560757c-3.0371323 0 -5.499214 2.8904839 -5.499214 6.4560757z" fill-rule="evenodd"/></g></svg>