<svg version="1.1" viewBox="0.0 0.0 100.0 100.0" fill="none" stroke="none" stroke-linecap="square" stroke-miterlimit="10" xmlns:xlink="http://www.w3.org/1999/xlink" xmlns="http://www.w3.org/2000/svg"><clipPath id="p.0"><path d="m0 0l100.0 0l0 100.0l-100.0 0l0 -100.0z" clip-rule="nonzero"/></clipPath><g clip-path="url(#p.0)"><path fill="#000000" fill-opacity="0.0" d="m0 0l100.0 0l0 100.0l-100.0 0z" fill-rule="evenodd"/><path fill="#d5a6bd" d="m43.386753 44.523457l0 0l37.721836 -37.72184l12.090485 12.090483l-37.72184 37.72184l0 0l-12.090481 0z" fill-rule="evenodd"/><path stroke="#000000" stroke-width="1.0" stroke-linejoin="round" stroke-linecap="butt" d="m43.386753 44.523457l0 0l37.721836 -37.72184l12.090485 12.090483l-37.72184 37.72184l0 0l-12.090481 0z" fill-rule="evenodd"/><path fill="#d9d9d9" d="m34.54515 53.365055l0 0l37.72184 -37.72184l12.090485 12.090481l-37.72184 37.72184l0 0l-12.090485 0z" fill-rule="evenodd"/><path stroke="#000000" stroke-width="1.0" stroke-linejoin="round" stroke-linecap="butt" d="m34.54515 53.365055l0 0l37.72184 -37.72184l12.090485 12.090481l-37.72184 37.72184l0 0l-12.090485 0z" fill-rule="evenodd"/><path fill="#f9cb9c" d="m19.290207 68.619576l0 0l38.24059 -38.240593l12.090481 12.090481l-38.240585 38.24059l0 0l-18.53362 6.443138z" fill-rule="evenodd"/><path stroke="#000000" stroke-width="1.0" stroke-linejoin="round" stroke-linecap="butt" d="m19.290207 68.619576l0 0l38.24059 -38.240593l12.090481 12.090481l-38.240585 38.24059l0 0l-18.53362 6.443138z" fill-rule="evenodd"/><path fill="#ffd966" d="m19.65831 68.2519l0 0l43.767082 -43.767082l12.090477 12.090481l-43.767075 43.76708l0 0l-6.0452404 -6.0452423z" fill-rule="evenodd"/><path stroke="#000000" stroke-width="1.0" stroke-linejoin="round" stroke-linecap="butt" d="m19.65831 68.2519l0 0l43.767082 -43.767082l12.090477 12.090481l-43.767075 43.76708l0 0l-6.0452404 -6.0452423z" fill-rule="evenodd"/><path fill="#434343" d="m15.571847 79.85963l0 0l0 0l4.826909 4.826912l0 0l0 0l-7.2171583 2.3902512z" fill-rule="evenodd"/><path stroke="#000000" stroke-width="1.0" stroke-linejoin="round" stroke-linecap="butt" d="m15.571847 79.85963l0 0l0 0l4.826909 4.826912l0 0l0 0l-7.2171583 2.3902512z" fill-rule="evenodd"/></g></svg>