<svg version="1.1" viewBox="0.0 0.0 637.4068241469816 453.03937007874015" fill="none" stroke="none" stroke-linecap="square" stroke-miterlimit="10" xmlns:xlink="http://www.w3.org/1999/xlink" xmlns="http://www.w3.org/2000/svg"><clipPath id="p.0"><path d="m0 0l637.4068 0l0 453.03937l-637.4068 0l0 -453.03937z" clip-rule="nonzero"/></clipPath><g clip-path="url(#p.0)"><path fill="#000000" fill-opacity="0.0" d="m0 0l637.4068 0l0 453.03937l-637.4068 0z" fill-rule="evenodd"/><path fill="#999999" d="m57.097115 0.9133858l523.2126 0l0 115.2126l-523.2126 0z" fill-rule="evenodd"/><path fill="#999999" d="m1.0971129 58.519684l0 0c0 -31.815079 25.79122 -57.606297 57.606297 -57.606297l0 0c15.278141 0 29.93053 6.0692177 40.733807 16.872496c10.803276 10.803276 16.87249 25.455662 16.87249 40.733803l0 0c0 31.815079 -25.791214 57.6063 -57.606297 57.6063l0 0c-31.815079 0 -57.606297 -25.791222 -57.606297 -57.6063z" fill-rule="evenodd"/><path fill="#999999" d="m521.0971 58.519684l0 0c0 -31.815079 25.791199 -57.606297 57.606323 -57.606297l0 0c15.278137 0 29.930481 6.0692177 40.733765 16.872496c10.803284 10.803276 16.872498 25.455662 16.872498 40.733803l0 0c0 31.815079 -25.791199 57.6063 -57.606262 57.6063l0 0c-31.815125 0 -57.606323 -25.791222 -57.606323 -57.6063z" fill-rule="evenodd"/><path fill="#999999" d="m57.097115 168.91339l523.2126 0l0 115.212585l-523.2126 0z" fill-rule="evenodd"/><path fill="#999999" d="m1.0971129 226.51968l0 0c0 -31.815079 25.79122 -57.606293 57.606297 -57.606293l0 0c15.278141 0 29.93053 6.069214 40.733807 16.872482c10.803276 10.803284 16.87249 25.455673 16.87249 40.73381l0 0c0 31.815094 -25.791214 57.606293 -57.606297 57.606293l0 0c-31.815079 0 -57.606297 -25.791199 -57.606297 -57.606293z" fill-rule="evenodd"/><path fill="#999999" d="m521.0971 226.51968l0 0c0 -31.815079 25.791199 -57.606293 57.606323 -57.606293l0 0c15.278137 0 29.930481 6.069214 40.733765 16.872482c10.803284 10.803284 16.872498 25.455673 16.872498 40.73381l0 0c0 31.815094 -25.791199 57.606293 -57.606262 57.606293l0 0c-31.815125 0 -57.606323 -25.791199 -57.606323 -57.606293z" fill-rule="evenodd"/><path fill="#999999" d="m57.097115 336.9134l523.2126 0l0 115.212585l-523.2126 0z" fill-rule="evenodd"/><path fill="#999999" d="m1.0971129 394.51968l0 0c0 -31.815094 25.79122 -57.606293 57.606297 -57.606293l0 0c15.278141 0 29.93053 6.069214 40.733807 16.872498c10.803276 10.803253 16.87249 25.455658 16.87249 40.733795l0 0c0 31.815094 -25.791214 57.606293 -57.606297 57.606293l0 0c-31.815079 0 -57.606297 -25.791199 -57.606297 -57.606293z" fill-rule="evenodd"/><path fill="#999999" d="m521.0971 394.51968l0 0c0 -31.815094 25.791199 -57.606293 57.606323 -57.606293l0 0c15.278137 0 29.930481 6.069214 40.733765 16.872498c10.803284 10.803253 16.872498 25.455658 16.872498 40.733795l0 0c0 31.815094 -25.791199 57.606293 -57.606262 57.606293l0 0c-31.815125 0 -57.606323 -25.791199 -57.606323 -57.606293z" fill-rule="evenodd"/></g></svg>